HIERARCHY
ROOT Hips
{
	OFFSET 0.000000 0.000000 0.000000
	CHANNELS 6 Xposition Yposition Zposition Zrotation Yrotation Xrotation 
	JOINT LHipJoint
	{
		OFFSET 0.000000 0.000000 0.000000
		CHANNELS 3 Zrotation Yrotation Xrotation
		JOINT LeftUpLeg
		{
			OFFSET 1.363060 -1.794630 0.839290
			CHANNELS 3 Zrotation Yrotation Xrotation
			JOINT LeftLeg
			{
				OFFSET 2.448110 -6.726130 0.000000
				CHANNELS 3 Zrotation Yrotation Xrotation
				JOINT LeftFoot
				{
					OFFSET 2.562200 -7.039590 0.000000
					CHANNELS 3 Zrotation Yrotation Xrotation
					JOINT LeftToeBase
					{
						OFFSET 0.157640 -0.433110 2.322550
						CHANNELS 3 Zrotation Yrotation Xrotation
						End Site
						{
							OFFSET 0.000000 0.000000 0.000000
						}
					}
				}
			}
		}
	}
	JOINT RHipJoint
	{
		OFFSET 0.000000 0.000000 0.000000
		CHANNELS 3 Zrotation Yrotation Xrotation
		JOINT RightUpLeg
		{
			OFFSET -1.305520 -1.794630 0.839290
			CHANNELS 3 Zrotation Yrotation Xrotation
			JOINT RightLeg
			{
				OFFSET -2.542530 -6.985550 0.000000
				CHANNELS 3 Zrotation Yrotation Xrotation
				JOINT RightFoot
				{
					OFFSET -2.568260 -7.056230 0.000000
					CHANNELS 3 Zrotation Yrotation Xrotation
					JOINT RightToeBase
					{
						OFFSET -0.164730 -0.452590 2.363150
						CHANNELS 3 Zrotation Yrotation Xrotation
						End Site
						{
							OFFSET 0.000000 0.000000 0.000000
						}
					}
				}
			}
		}
	}
	JOINT LowerBack
	{
		OFFSET 0.000000 0.000000 0.000000
		CHANNELS 3 Zrotation Yrotation Xrotation
		JOINT Spine
		{
			OFFSET 0.028270 2.035590 -0.193380
			CHANNELS 3 Zrotation Yrotation Xrotation
			JOINT Spine1
			{
				OFFSET 0.056720 2.048850 -0.042750
				CHANNELS 3 Zrotation Yrotation Xrotation
				JOINT Neck
				{
					OFFSET 0.000000 0.000000 0.000000
					CHANNELS 3 Zrotation Yrotation Xrotation
					JOINT Neck1
					{
						OFFSET -0.054170 1.746240 0.172020
						CHANNELS 3 Zrotation Yrotation Xrotation
						JOINT Head
						{
							OFFSET 0.104070 1.761360 -0.123970
							CHANNELS 3 Zrotation Yrotation Xrotation
							End Site
							{
								OFFSET 0.000000 0.000000 0.000000
							}
						}
					}
				}
				JOINT LeftShoulder
				{
					OFFSET 0.000000 0.000000 0.000000
					CHANNELS 3 Zrotation Yrotation Xrotation
					JOINT LeftArm
					{
						OFFSET 3.362410 1.200890 -0.311210
						CHANNELS 3 Zrotation Yrotation Xrotation
						JOINT LeftForeArm
						{
							OFFSET 4.983000 -0.000000 -0.000000
							CHANNELS 3 Zrotation Yrotation Xrotation
							JOINT LeftHand
							{
								OFFSET 3.483560 -0.000000 -0.000000
								CHANNELS 3 Zrotation Yrotation Xrotation
								JOINT LeftFingerBase
								{
									OFFSET 0.000000 0.000000 0.000000
									CHANNELS 3 Zrotation Yrotation Xrotation
									JOINT LeftHandIndex1
									{
										OFFSET 0.715260 -0.000000 -0.000000
										CHANNELS 3 Zrotation Yrotation Xrotation
										End Site
										{
											OFFSET 0.000000 0.000000 0.000000
										}
									}
								}
								JOINT LThumb
								{
									OFFSET 0.000000 0.000000 0.000000
									CHANNELS 3 Zrotation Yrotation Xrotation
									End Site
									{
										OFFSET 0.000000 0.000000 0.000000
									}
								}
							}
						}
					}
				}
				JOINT RightShoulder
				{
					OFFSET 0.000000 0.000000 0.000000
					CHANNELS 3 Zrotation Yrotation Xrotation
					JOINT RightArm
					{
						OFFSET -3.136600 1.374050 -0.404650
						CHANNELS 3 Zrotation Yrotation Xrotation
						JOINT RightForeArm
						{
							OFFSET -5.241900 -0.000000 -0.000000
							CHANNELS 3 Zrotation Yrotation Xrotation
							JOINT RightHand
							{
								OFFSET -3.444170 -0.000000 -0.000000
								CHANNELS 3 Zrotation Yrotation Xrotation
								JOINT RightFingerBase
								{
									OFFSET 0.000000 0.000000 0.000000
									CHANNELS 3 Zrotation Yrotation Xrotation
									JOINT RightHandIndex1
									{
										OFFSET -0.622530 -0.000000 -0.000000
										CHANNELS 3 Zrotation Yrotation Xrotation
										End Site
										{
											OFFSET 0.000000 0.000000 0.000000
										}
									}
								}
								JOINT RThumb
								{
									OFFSET 0.000000 0.000000 0.000000
									CHANNELS 3 Zrotation Yrotation Xrotation
									End Site
									{
										OFFSET 0.000000 0.000000 0.000000
									}
								}
							}
						}
					}
				}
			}
		}
	}
}
MOTION
Frames: 8
Frame Time: 0.008333
2.695589 15.258574 1.099825 64.866163 -81.820141 -24.750404 -11.070917 -2.239341 -1.717900 -13.296986 -2.293285 -62.635077 1.268199 4.990756 83.174358 4.744018 22.290557 -27.499951 -7.276300 0.000000 -1.307300 8.691944 0.389233 -2.439139 14.004884 -7.959070 -67.827189 1.611244 -6.675892 68.991648 -3.127186 -4.575815 -34.515378 3.138401 -0.000000 -27.426500 11.506743 -0.497176 6.051034 2.569983 -0.685486 -1.441697 -2.154085 -0.753195 0.031578 4.269289 -7.883862 -6.612913 -1.201969 -0.072224 -0.263234 0.000000 0.000000 0.000000 7.309544 10.673267 2.205420 -69.442323 5.855873 23.171277 0.016425 -87.625290 0.071217 -14.285852 -0.925865 0.156532 0.229064 0.303561 0.000000 0.000000 0.000000 0.000000 0.000000 0.000000 0.000000 -1.101789 -2.166077 0.142416 62.937140 10.727383 3.349442 0.075285 85.918550 -0.013281 -2.491934 1.704278 -0.045802 0.063028 -0.380874 0.000000 0.000000 0.000000 0.000000 0.000000 0.000000 0.000000 
2.520047 15.301884 1.080806 66.943577 -81.994580 -26.415930 -10.851137 -2.389112 -1.703297 -14.082526 -2.692896 -65.283181 1.256986 5.155386 83.161039 4.802249 22.024469 -27.791354 -7.273900 -0.000000 -1.362700 8.675266 0.348128 -2.564416 14.007642 -8.085450 -66.946516 1.750138 -6.566007 68.048608 -3.037847 -4.201290 -34.234840 2.971299 0.000000 -29.041300 10.937485 -0.415346 6.267689 2.468067 -0.564262 -1.376423 -2.055646 -0.632135 0.078215 4.076526 -7.918381 -6.546298 -1.093275 -0.064653 -0.252934 0.000000 0.000000 0.000000 7.034819 10.935332 2.241156 -69.708681 6.422187 23.614073 -0.022910 -87.035068 0.070063 -14.388454 -0.942005 0.158830 0.228269 0.297028 0.000000 0.000000 0.000000 0.000000 0.000000 0.000000 0.000000 -1.721041 -2.161781 0.070692 62.110205 11.158529 3.710474 0.029873 87.193960 -0.013567 -2.505664 1.740249 -0.047014 0.064087 -0.386406 0.000000 0.000000 0.000000 0.000000 0.000000 0.000000 0.000000 
2.341974 15.344825 1.062968 69.136222 -82.172285 -28.219982 -10.629365 -2.513298 -1.680358 -14.869088 -3.121562 -67.851153 1.223281 5.310147 82.931371 4.858345 21.743239 -28.003063 -7.234000 -0.000000 -1.497000 8.651328 0.301312 -2.698770 14.009161 -8.216038 -66.006524 1.888119 -6.449586 67.067543 -2.949985 -3.853038 -33.922961 2.812000 0.000000 -30.616900 10.352630 -0.330100 6.490346 2.360517 -0.440016 -1.309655 -1.964107 -0.507651 0.125322 3.913829 -7.972570 -6.498121 -0.987609 -0.057043 -0.247945 0.000000 0.000000 0.000000 6.751859 11.227508 2.278415 -69.915850 7.005417 24.044052 -0.060559 -86.472616 0.068837 -14.475805 -0.957568 0.161025 0.227126 0.290569 0.000000 0.000000 0.000000 0.000000 0.000000 0.000000 0.000000 -2.295129 -2.173531 0.004760 61.213989 11.505711 3.977512 -0.017711 88.533244 -0.014342 -2.565606 1.741106 -0.048326 0.066034 -0.391451 0.000000 0.000000 0.000000 0.000000 0.000000 0.000000 0.000000 
2.161041 15.387048 1.046079 71.465937 -82.343536 -30.187608 -10.409136 -2.606849 -1.645114 -15.655377 -3.589774 -70.310852 1.162904 5.450921 82.461402 4.906542 21.423758 -28.110597 -7.140800 0.000001 -1.990500 8.621641 0.252151 -2.841465 13.996128 -8.355797 -65.007990 2.022498 -6.326857 66.056971 -2.861159 -3.527378 -33.566591 2.657299 -0.000000 -32.219100 9.745359 -0.243968 6.713332 2.245676 -0.315775 -1.243533 -1.879529 -0.382733 0.170871 3.784433 -8.035035 -6.462366 -0.885660 -0.049547 -0.246188 0.000000 0.000000 0.000000 6.466410 11.536994 2.315937 -70.068784 7.619886 24.446568 -0.096204 -85.942643 0.067529 -14.546461 -0.960376 0.161220 0.225687 0.283959 0.000000 0.000000 0.000000 0.000000 0.000000 0.000000 0.000000 -2.820123 -2.191557 -0.054993 60.255627 11.761396 4.156131 -0.066422 89.922137 -0.014984 -2.659230 1.713279 -0.049537 0.068697 -0.395982 0.000000 0.000000 0.000000 0.000000 0.000000 0.000000 0.000000 
1.976679 15.428182 1.030434 73.873045 -82.510290 -32.260336 -10.192247 -2.666468 -1.593131 -16.427399 -4.101535 -72.645014 1.070247 5.575242 81.740492 4.942644 21.033588 -28.149091 -6.999400 -0.000000 -2.491901 8.588621 0.201247 -2.991413 13.971769 -8.505278 -63.952659 2.153286 -6.198732 65.025308 -2.769822 -3.213199 -33.172091 2.504700 0.000000 -33.756700 9.126247 -0.155381 6.928583 2.125610 -0.190871 -1.178875 -1.802710 -0.256810 0.219025 3.689719 -8.118467 -6.440321 -0.788043 -0.042191 -0.247788 0.000000 0.000000 0.000000 6.181331 11.871304 2.351163 -70.174769 8.252384 24.828104 -0.130471 -85.436103 0.066125 -14.597798 -0.952417 0.159914 0.223874 0.277208 -0.000000 0.000000 0.000000 0.000000 0.000000 0.000000 0.000000 -3.289262 -2.230558 -0.108979 59.239172 11.940069 4.259513 179.883803 88.657877 179.984010 -2.781428 1.654929 -0.050548 0.072086 -0.399836 0.000000 0.000000 0.000000 0.000000 0.000000 0.000000 0.000000 
1.788508 15.467773 1.016048 76.330158 -82.670088 -34.410659 -9.980705 -2.688840 -1.519376 -17.175304 -4.662460 -74.837082 0.942261 5.679603 80.754118 4.959241 20.540215 -28.100074 -6.794600 0.000000 -3.179500 8.555208 0.150851 -3.146793 13.931093 -8.666668 -62.845825 2.279334 -6.066138 63.981963 -2.673802 -2.900960 -32.737047 2.350700 -0.000000 -35.255800 8.497880 -0.065748 7.127314 2.000897 -0.067353 -1.117954 -1.733532 -0.131992 0.269873 3.629900 -8.220397 -6.430082 -0.694836 -0.035021 -0.251865 0.000000 0.000000 0.000000 5.903553 12.225705 2.382869 -70.243130 8.910284 25.179516 -0.163152 -84.955599 0.064630 -14.630737 -0.927789 0.156107 0.221770 0.270216 -0.000000 0.000000 0.000000 0.000000 0.000000 0.000000 0.000000 -3.703111 -2.288997 -0.157287 58.177739 12.044415 4.299062 179.833385 87.221763 179.982864 -2.917835 1.575009 -0.051058 0.075970 -0.403060 0.000000 0.000000 0.000000 0.000000 0.000000 0.000000 0.000000 
1.596058 15.505293 1.002951 78.788263 -82.823076 -36.586114 -9.775440 -2.671838 -1.419047 -17.888024 -5.275522 -76.878863 0.775754 5.761600 79.496320 4.950736 19.913662 -27.973224 -6.524300 0.000000 -3.948901 8.524820 0.102309 -3.305406 13.872827 -8.840937 -61.694530 2.400341 -5.930235 62.935440 -2.571515 -2.580396 -32.264666 2.192700 0.000000 -36.729600 7.866386 0.023845 7.300456 1.872993 0.053142 -1.062731 -1.671775 -0.010015 0.324674 3.603923 -8.342778 -6.432102 -0.605794 -0.028018 -0.258298 0.000000 0.000000 0.000000 5.639895 12.601330 2.410108 -70.283687 9.593782 25.497023 -0.194157 -84.501864 0.063056 -14.645438 -0.884501 0.149598 0.219415 0.262973 -0.000000 0.000000 0.000000 0.000000 0.000000 0.000000 0.000000 -4.063914 -2.369637 -0.200322 57.086775 12.081786 4.287293 179.782600 85.784211 179.981722 -3.055385 1.482735 -0.051067 0.080114 -0.405737 0.000000 0.000000 0.000000 0.000000 0.000000 0.000000 0.000000 
1.399109 15.540310 0.991227 81.178605 -82.971984 -38.716368 -9.576908 -2.615006 -1.287630 -18.553096 -5.939855 -78.767054 0.569712 5.818765 77.963526 4.910681 19.130446 -27.753680 -6.180700 -0.000000 -4.909600 8.500791 0.055942 -3.465071 13.799079 -9.028492 -60.505731 2.516506 -5.792303 61.892260 -2.462261 -2.243781 -31.760840 2.029599 0.000000 -38.188500 7.240327 0.112179 7.439191 1.743972 0.169017 -1.015324 -1.617104 0.107417 0.384103 3.609095 -8.487041 -6.447556 -0.520317 -0.021125 -0.267158 0.000000 0.000000 0.000000 5.397434 12.998794 2.432495 -70.306493 10.303514 25.777230 -0.223265 -84.077857 0.061418 -14.643924 -0.822231 0.140487 0.216884 0.255502 -0.000000 0.000000 0.000000 0.000000 0.000000 0.000000 0.000000 -4.378080 -2.474033 -0.238782 55.985830 12.058784 4.235732 179.731583 84.357408 179.980649 -3.182436 1.388550 -0.050574 0.084261 -0.408026 0.000000 0.000000 0.000000 0.000000 0.000000 0.000000 0.000000 
